<?xml version="1.0" encoding="UTF-8" standalone="no"?>
<svg width="40px" height="40px" viewBox="0 0 40 40" version="1.1" xmlns="http://www.w3.org/2000/svg" xmlns:xlink="http://www.w3.org/1999/xlink" xmlns:sketch="http://www.bohemiancoding.com/sketch/ns">
    <!-- Generator: Sketch 3.3.1 (12002) - http://www.bohemiancoding.com/sketch -->
    <title>SlideShare</title>
    <desc>Created with Sketch.</desc>
    <defs></defs>
    <g id="Page-1" stroke="none" stroke-width="1" fill="none" fill-rule="evenodd" sketch:type="MSPage">
        <g id="slideshare" sketch:type="MSLayerGroup">
            <g id="Page-1" sketch:type="MSShapeGroup">
                <g id="LinkedIN">
                    <g id="Group">
                        <path d="M0.299440917,20 C0.299440917,8.95430447 9.11968113,0 20,0 C30.8803189,0 39.7005591,8.95430447 39.7005591,20 C39.7005591,31.0456955 30.8803189,40 20,40 C9.11968113,40 0.299440917,31.0456955 0.299440917,20 L0.299440917,20 Z" id="Shape" fill="#007BB6"></path>
                        <path d="M9.05374683,19.4775781 C9.28593434,19.3034375 9.60519216,19.3469726 10.0115203,19.6081613 L10.0115203,8.85499954 L29.9070875,8.85499954 L29.9070875,19.6081836 C30.139275,19.4340429 30.385952,19.3469726 30.6471852,19.3469726 C30.9083962,19.3469726 31.0244899,19.4485547 30.9954665,19.6517187 C30.9083962,19.9129297 30.7560343,20.1886524 30.5383362,20.4788867 C30.3206827,20.7691211 30.1030069,21.0158204 29.8853088,21.2189844 C29.667633,21.4221485 29.3483752,21.647069 28.9275353,21.8937682 C28.5067178,22.1404452 28.1947046,22.3218751 27.9915406,22.4379689 C27.7883988,22.5540849 27.4473622,22.7282255 26.9684755,22.960413 C26.4896111,23.1925783 26.2065991,23.3231614 26.1195288,23.3522072 C26.4968335,24.5712139 26.627439,25.7756866 26.5113452,26.9656476 C26.366228,28.0975394 25.9526552,29.0553352 25.2706043,29.8389457 C24.5885535,30.6225786 23.6960939,31.028929 22.593181,31.0579524 C21.7515013,31.0579524 21.0839845,30.7096712 20.5905637,30.0131086 C20.4454465,29.7809211 20.3728879,29.5051985 20.3728879,29.1859406 L20.3728879,24.7888674 C20.2858176,24.7888674 20.1407004,24.7525992 19.9375363,24.6800183 C19.7343946,24.6074597 19.6183008,24.5711693 19.5892551,24.5711693 L19.5892551,29.2729664 C19.5892551,29.7953883 19.3570676,30.2380069 18.8926925,30.6007998 C18.4283175,30.9635928 17.9204073,31.1450005 17.3689843,31.1450005 C16.2950948,31.1450005 15.4098799,30.73865 14.7133174,29.9259937 C14.0167771,29.1133375 13.595915,28.1410523 13.4507978,27.0091382 C13.334704,25.7901314 13.4653095,24.6001927 13.8426142,23.4392552 C12.0722067,22.6556446 10.5484762,21.6253126 9.27144491,20.3482813 C9.01023396,19.8839062 8.93767536,19.5936719 9.05374683,19.4775781 L9.05374683,19.4775781 L9.05374683,19.4775781 Z M11.1434344,20.3482813 C11.2595282,20.4063281 11.4409358,20.5006655 11.687635,20.6312486 C11.9343343,20.7618318 12.1302313,20.8561691 12.2753708,20.9141937 L27.8609574,20.7400531 C28.296309,20.536889 28.5865434,20.3917718 28.7316606,20.3047015 L28.7316606,10.0304265 L11.1434567,10.0304265 L11.1434344,20.3482813 L11.1434344,20.3482813 Z M14.3215232,18.1279882 C14.3215232,17.4024022 14.5827342,16.7783983 15.1051338,16.2559764 C15.627578,15.7335545 16.2515596,15.4723436 16.9771456,15.4723436 C17.7027316,15.4723436 18.3194685,15.7335545 18.8273787,16.2559764 C19.3352665,16.7784206 19.5892551,17.4024245 19.5892551,18.1279882 C19.5892774,18.8535742 19.3353111,19.4703111 18.8273787,19.9782213 C18.3194462,20.4861092 17.7027093,20.7400754 16.9771456,20.7400977 C16.2515819,20.74012 15.627578,20.4861537 15.1051338,19.9782213 C14.5826896,19.4702888 14.3214787,18.8535519 14.3215232,18.1279882 L14.3215232,18.1279882 Z M20.5470285,18.1279882 C20.5470285,17.4024022 20.8082395,16.7783983 21.3306614,16.2559764 C21.8531056,15.7335545 22.4770872,15.4723436 23.2026732,15.4723436 C23.9282592,15.4723436 24.5449961,15.7335545 25.0529063,16.2559764 C25.5607941,16.7784206 25.8147604,17.4024245 25.8147827,18.1279882 C25.8147827,18.8535742 25.5608164,19.4703111 25.0529063,19.9782213 C24.5449738,20.4861092 23.9282369,20.7400754 23.2026732,20.7400977 C22.4771095,20.74012 21.8531056,20.4861537 21.3306614,19.9782213 C20.8082172,19.4702888 20.5470063,18.8535519 20.5470285,18.1279882 L20.5470285,18.1279882 Z" id="Shape" fill="#FFFFFF"></path>
                        <path d="M39.7005591,20 C39.7005591,31.0456955 30.8803189,40 20,40 C15.9647475,40 12.2128572,38.7683423 9.08927007,36.6551836 L31.6627509,3.87960735 C36.5373497,7.52043353 39.7005591,13.3851982 39.7005591,20 L39.7005591,20 Z" id="reflec" fill-opacity="0.08" fill="#000000"></path>
                    </g>
                </g>
            </g>
        </g>
    </g>
</svg>