<?xml version="1.0" encoding="UTF-8" standalone="no"?>
<svg width="40px" height="40px" viewBox="0 0 40 40" version="1.1" xmlns="http://www.w3.org/2000/svg" xmlns:xlink="http://www.w3.org/1999/xlink" xmlns:sketch="http://www.bohemiancoding.com/sketch/ns">
    <!-- Generator: Sketch 3.3.1 (12002) - http://www.bohemiancoding.com/sketch -->
    <title>Slideshare</title>
    <desc>Created with Sketch.</desc>
    <defs></defs>
    <g id="Page-1" stroke="none" stroke-width="1" fill="none" fill-rule="evenodd" sketch:type="MSPage">
        <g id="slideshare" sketch:type="MSLayerGroup">
            <g id="Page-1" sketch:type="MSShapeGroup">
                <g id="LinkedIN">
                    <g id="Group">
                        <path d="M0.299440917,20 C0.299440917,8.95430447 9.11968113,0 20,0 C30.8803189,0 39.7005591,8.95430447 39.7005591,20 C39.7005591,31.0456955 30.8803189,40 20,40 C9.11968113,40 0.299440917,31.0456955 0.299440917,20 L0.299440917,20 Z" id="Shape" fill="#007BB6"></path>
                        <path d="M33.0859121,17.0948315 C32.0555346,19.0729358 29.9011091,19.6735301 27.7962738,20.7782931 L27.7962738,25.045819 C27.7962738,25.6464133 27.0221133,29.1480436 24.0632219,29.1480436 C21.1043305,29.1480436 20.1290534,27.4537064 20.1290534,26.7539313 L20.1290534,22.8004777 C19.8397763,22.7316022 19.5532543,22.6296665 19.2777523,22.4864055 L19.2777523,26.7539313 C19.2777523,27.4564614 18.1757443,28.4620437 16.7210938,28.4620437 C15.2664433,28.4620437 12.461833,26.4040438 12.461833,25.048574 L12.461833,20.4284056 C12.461833,20.4284056 8.5744999,18.9021246 7.67085337,17.7973616 C6.76720684,16.6925986 6.31813859,16.2407753 6.5688454,15.5878356 C6.81128716,14.956936 9.72609823,17.3951287 11.4314556,17.7973616 C13.1368129,18.1995945 16.0929492,18.4007109 17.3464833,18.3511206 C18.6000174,18.3015302 19.3025474,18.8029438 20.0023225,19.4558836 C20.0408928,19.4916988 20.0849731,19.5275141 20.1290534,19.5633293 L20.1290534,19.0701808 C20.1290534,18.4695864 21.732475,18.2161246 22.6857119,18.2161246 L26.9449727,18.2161246 C27.4463863,18.2161246 31.3309644,16.9433054 32.2346109,15.9377231 C33.1355024,14.9348959 34.0556791,15.2351931 33.0859121,17.0948315 L33.0859121,17.0948315 Z M24.1045472,16.8248395 C25.7520491,16.8248395 27.0854787,15.4886549 27.0854787,13.838398 C27.0854787,12.188141 25.749294,10.8519564 24.1045472,10.8519564 C22.4598003,10.8519564 21.1236156,12.188141 21.1236156,13.838398 C21.1236156,15.4858999 22.4598003,16.8248395 24.1045472,16.8248395 L24.1045472,16.8248395 Z M16.2499854,16.8248395 C17.8974873,16.8248395 19.2309169,15.4886549 19.2309169,13.838398 C19.2309169,12.188141 17.8947323,10.8519564 16.2499854,10.8519564 C14.6052385,10.8519564 13.2690538,12.188141 13.2690538,13.838398 C13.2690538,15.4858999 14.6024835,16.8248395 16.2499854,16.8248395 L16.2499854,16.8248395 Z" id="SlideShare" fill="#FFFFFF"></path>
                        <path d="M39.7005591,20 C39.7005591,31.0456955 30.8803189,40 20,40 C15.9647475,40 12.2128572,38.7683423 9.08927007,36.6551836 L31.6627509,3.87960735 C36.5373497,7.52043353 39.7005591,13.3851982 39.7005591,20 L39.7005591,20 Z" id="reflec" fill-opacity="0.08" fill="#000000"></path>
                    </g>
                </g>
            </g>
        </g>
    </g>
</svg>