<?xml version="1.0" encoding="UTF-8" standalone="no"?>
<svg width="655px" height="441px" viewBox="0 0 655 441" version="1.1" xmlns="http://www.w3.org/2000/svg" xmlns:xlink="http://www.w3.org/1999/xlink" xmlns:sketch="http://www.bohemiancoding.com/sketch/ns">
    <!-- Generator: Sketch 3.3.1 (12002) - http://www.bohemiancoding.com/sketch -->
    <title>lost</title>
    <desc>Created with Sketch.</desc>
    <defs></defs>
    <g id="Page-1" stroke="none" stroke-width="1" fill="none" fill-rule="evenodd" sketch:type="MSPage">
        <g id="lost" sketch:type="MSLayerGroup" fill="#000000">
            <g id="Page-1" sketch:type="MSShapeGroup">
                <g id="Lost-pic" transform="translate(327.500000, 220.100000) scale(1, -1) translate(-327.500000, -220.100000) translate(0.000000, 0.100000)">
                    <path d="M63.326226,438.592751 C43.7810945,433.041933 33.148543,425.927505 26.2686567,413.809524 C18.8415068,400.753376 18.0597015,398.877043 17.1997157,393.404407 C14.9324805,379.09737 21.5778252,367.292111 35.4157783,360.646766 C43.3120114,356.972281 50.9737029,355.33049 61.7626155,355.33049 C70.0497512,355.25231 71.0660981,355.408671 74.7405828,357.363184 C79.5877754,359.943141 95.3020611,374.093817 98.5856432,378.862829 C101.00924,382.380952 104.761905,392.857143 106.716418,401.37882 C108.51457,409.353234 108.905473,415.529495 107.889126,419.751244 C105.856432,428.351102 95.0675195,436.247335 81.9331912,438.905473 C74.1933191,440.390903 69.6588486,440.312722 63.326226,438.592751 L63.326226,438.592751 L63.326226,438.592751 Z M90.4548685,431.08742 C97.6474769,427.803838 103.901919,420.767591 103.041933,416.858564 C102.807392,415.685856 102.49467,415.920398 101.400142,417.874911 C99.5238095,421.471215 92.018479,427.960199 87.3276475,430.149254 C78.8841507,433.9801 78.9623312,433.901919 82.8713575,433.432836 C84.8258706,433.198294 88.1876333,432.103767 90.4548685,431.08742 L90.4548685,431.08742 L90.4548685,431.08742 Z M72.0824449,426.474769 C86.1549396,423.191187 90.6894101,416.076759 90.6894101,397.235252 C90.6894101,379.879176 88.0312722,373.781095 78.4150675,368.777541 C71.5351812,365.259417 67.0007107,364.477612 59.8081023,365.7285 C51.8336887,367.057569 44.0938166,371.122957 38.1520967,377.142857 C30.8031272,384.570007 27.8322672,389.886283 27.5195451,396.218905 C27.050462,404.193319 28.2231699,407.164179 33.5394456,412.167733 C36.7448472,415.138593 39.246624,416.702203 41.6702203,417.249467 C45.344705,418.187633 46.7519545,419.985785 45.2665245,421.783937 C44.0938166,423.191187 45.5792466,425.06752 48.8628287,426.474769 C51.9900498,427.803838 66.297086,427.882018 72.0824449,426.474769 L72.0824449,426.474769 L72.0824449,426.474769 Z M98.5856432,411.620469 C100.305615,405.444208 98.5074627,386.915423 96.2402274,386.915423 C96.0056859,386.915423 95.7711443,392.075338 95.7711443,398.486141 C95.6929638,408.102345 95.4584222,410.682303 94.1293532,414.278607 C93.1911869,416.624023 92.2530206,419.282161 91.9402985,420.142146 C91.6275764,421.002132 92.7221038,420.220327 94.5202559,418.265814 C96.318408,416.389481 98.1165601,413.496802 98.5856432,411.620469 L98.5856432,411.620469 L98.5856432,411.620469 Z M27.2850036,382.459133 C30.8813077,376.830135 39.6375267,368.542999 45.344705,365.415778 L50.4264392,362.601279 L46.2828714,362.992182 C37.4484719,363.852168 29.1613362,369.559346 25.721393,377.064677 C24.4705046,379.800995 23.6105188,386.133618 24.5486851,386.133618 C24.7050462,386.133618 25.9559346,384.491827 27.2850036,382.459133 L27.2850036,382.459133 L27.2850036,382.459133 Z" id="Shape"></path>
                    <path d="M532.018479,236.105188 C528.813077,235.245203 525.216773,233.36887 523.653163,231.648898 C520.995025,228.678038 518.102345,221.563611 516.616915,214.292822 C514.975124,206.162047 514.975124,209.680171 516.460554,157.064677 C517.085999,135.565032 516.147832,126.574271 512.395167,118.91258 C509.189765,112.345416 506.92253,110.703625 501.371713,111.094527 C498.479033,111.250888 497.462687,111.798152 496.133618,113.518124 C494.648188,115.550817 494.413646,117.114428 494.100924,129.936034 C493.631841,145.493959 493.240938,147.057569 488.393746,152.217484 C486.04833,154.64108 485.891969,154.719261 479.012082,154.719261 C472.054016,154.719261 471.975835,154.719261 469.552239,152.139303 C468.22317,150.732054 466.268657,147.761194 465.174129,145.65032 C463.375977,142.210377 463.219616,140.724947 462.985075,130.248756 C462.672353,116.645345 463.532338,110.390903 466.73774,102.025586 C470.177683,93.1911869 474.477612,87.5621891 487.142857,75.6005686 C499.808102,63.6389481 504.029851,58.4790334 508.486141,49.1755508 L511.691542,42.5302061 L511.926084,26.3468372 L512.160625,10.0852878 L505.124378,10.0852878 C501.215352,10.0852878 494.257285,10.6325515 489.644634,11.3361763 C477.21393,13.0561478 449.147122,18.4506041 436.638237,21.4214641 C430.618337,22.8287136 423.738451,24.3923241 421.393035,24.9395878 C416.467662,26.0341151 404.506041,31.1940299 381.911869,41.9047619 C373.312011,46.0483298 357.675906,53.3191187 347.121535,58.1663113 C336.567164,63.0135039 320.383795,70.6751955 311.158493,75.209666 C287.469794,86.7803838 263.233831,95.8493248 247.206823,99.1329069 C229.772566,102.729211 222.110874,103.276475 199.360341,102.885572 C169.964463,102.338308 150.653873,99.0547264 129.466951,91.0803127 L124.307036,89.1257996 L124.307036,104.136461 C124.307036,112.423596 124.072495,119.850746 123.916134,120.710732 C123.525231,122.117982 124.697939,122.665245 134.235963,126.027008 C161.442786,135.643213 179.737029,142.444918 182.004264,143.773987 L184.506041,145.337598 L184.506041,167.149964 C184.506041,188.962331 183.646055,203.738451 181.847903,214.371002 L180.909737,220 L177.860697,219.843639 C171.449893,219.374556 153.702914,213.745558 134.079602,205.927505 C105.934613,194.74769 70.909737,183.255153 49.4100924,178.173419 C46.2828714,177.469794 45.2665245,176.84435 44.8756219,175.4371 C44.6410803,174.498934 44.5628998,158.237385 44.7974414,139.395878 C45.0319829,112.345416 45.344705,104.371002 46.2046908,101.791045 C47.5337598,97.803838 48.159204,97.1783937 49.4100924,98.1947406 C49.9573561,98.6638237 51.6773276,99.2892679 53.1627576,99.60199 C57.4626866,100.461976 71.1442786,104.761905 97.5692964,113.596304 L121.96162,121.805259 L121.805259,104.996446 L121.570718,88.1876333 L106.716418,81.1513859 C98.5856432,77.2423596 88.1094527,72.395167 83.4968017,70.2842928 C72.238806,65.2807392 37.9957356,46.0483298 31.2722104,41.0447761 C16.3397299,29.8649609 4.69083156,18.6851457 4.69083156,15.6361052 C4.69083156,15.167022 3.67448472,13.1343284 2.34541578,11.1016347 C1.09452736,9.06894101 0,7.03624733 0,6.56716418 C0,5.39445629 2.57995736,3.04904051 3.75266525,3.04904051 C4.2217484,3.04904051 6.56716418,5.00355366 8.99076048,7.34896944 C13.9943141,12.196162 36.8230277,30.2558635 49.2537313,39.090263 C80.0568586,61.1371713 112.579957,78.8841507 137.050462,87.0149254 C158.628287,94.2075338 174.420753,96.318408 206.787491,96.3965885 C222.814499,96.474769 231.101635,96.1620469 234.93248,95.3802416 C256.510306,91.2366738 267.53376,87.7185501 290.440654,77.7114428 C308.109453,69.9715707 318.976546,64.655295 326.403696,60.1208244 C329.296375,58.4008529 338.678038,53.3972992 347.356077,49.0973703 C356.034115,44.7192608 365.806681,39.6375267 369.012082,37.8393746 C376.830135,33.3049041 386.055437,29.5522388 398.798863,25.721393 C404.584222,24.0014215 412.324094,21.3432836 415.920398,19.7796731 C449.147122,5.62899787 472.288557,1.01634684 514.818763,0.156361052 C545.856432,-0.39090263 562.977967,1.56361052 589.637527,8.91257996 C610.511727,14.6979389 642.878465,26.8941009 645.614783,30.021322 C646.55295,31.0376688 648.585643,32.6012793 650.305615,33.4612651 C653.9801,35.3375977 655.465529,37.0575693 654.840085,38.6211798 C653.9801,40.8884151 652.103767,40.6538735 646.787491,37.604833 C630.447761,28.0668088 606.993603,20.1705757 578.926795,14.7761194 C568.294243,12.7434257 550.312722,10.0852878 547.185501,10.0852878 L544.918266,10.0852878 L544.918266,27.6759062 C544.918266,37.4484719 545.309168,46.9864961 545.778252,49.3319119 C546.247335,51.5991471 548.436389,56.9936034 550.703625,61.2935323 C554.925373,69.5806681 555.707178,70.4406539 571.890547,85.5294954 C584.477612,97.2565743 586.041222,98.9765458 591.435679,106.638237 C601.911869,121.805259 605.117271,132.046908 605.117271,150.653873 C605.03909,163.866382 603.710021,171.918977 600.191898,179.267946 C595.579247,189.040512 589.950249,193.809524 583.070362,193.809524 C578.692253,193.809524 576.81592,192.402274 574.783227,187.711443 C572.828714,183.255153 572.203269,179.267946 569.545131,157.690121 C566.886994,135.643213 564.776119,129.31059 557.114428,121.336176 C553.752665,117.818053 551.954513,117.192608 550.390903,119.147122 C549.218195,120.554371 549.687278,135.25231 551.563611,153.15565 C552.892679,166.289979 553.127221,208.272921 551.954513,216.872779 C551.016347,223.518124 546.638237,232.899787 543.589197,234.93248 C541.165601,236.41791 535.614783,237.043355 532.018479,236.105188 L532.018479,236.105188 L532.018479,236.105188 Z M542.260128,231.257996 C545.074627,228.599858 547.889126,221.250888 548.749112,214.136461 C550,204.520256 549.843639,168.791756 548.51457,156.673774 C546.403696,137.675906 545.465529,123.837953 545.934613,121.023454 C546.794598,116.879886 549.061834,114.847193 552.892679,114.847193 C555.628998,114.847193 556.488984,115.316276 559.147122,118.208955 C567.90334,127.512438 570.561478,135.486851 573.454158,161.208244 C575.486851,179.267946 576.190476,183.098792 578.848614,188.258706 C579.943141,190.2914 580.568586,190.682303 583.070362,190.682303 C588.855721,190.682303 593.390192,186.226013 597.690121,176.453447 C600.739161,169.49538 601.99005,161.99005 601.99005,150.028429 C601.99005,133.454158 598.159204,121.88344 587.917555,107.498223 C584.399431,102.57285 580.177683,97.4911158 578.614072,96.3965885 C577.050462,95.2238806 573.297797,91.7839375 570.326937,88.7348969 C567.277896,85.6858564 562.587065,81.307747 559.850746,78.9623312 C551.876333,72.1606254 544.840085,59.9644634 542.260128,48.6282871 C541.321962,44.4065387 541.00924,38.8557214 541.00924,26.1122957 L541.00924,9.30348259 L528.343994,9.45984364 L515.600569,9.69438522 L515.209666,26.8941009 C514.818763,43.6247335 514.740583,44.2501777 512.707889,48.7064677 C507.938877,58.713575 504.733475,62.8571429 489.722814,77.7896233 C475.65032,91.862118 474.477612,93.1911869 471.506752,99.445629 C467.285004,108.280028 466.81592,110.703625 466.190476,125.870647 C465.721393,138.535892 465.799574,138.926795 467.675906,143.070362 C468.770434,145.415778 470.568586,148.230277 471.663113,149.481166 C473.539446,151.357498 474.24307,151.59204 479.090263,151.59204 C483.937456,151.59204 484.64108,151.357498 486.595593,149.324805 C490.035537,145.806681 490.973703,141.037669 490.973703,127.981521 C490.973703,115.707178 491.442786,113.596304 495.117271,109.609097 C496.44634,108.123667 497.540867,107.810945 501.918977,107.810945 C509.267946,107.810945 512.78607,110.625444 516.304193,119.147122 C520.21322,128.919687 520.447761,135.017768 518.649609,190.369581 C518.102345,206.787491 518.80597,213.041933 522.324094,222.032694 C524.122246,226.645345 525.373134,228.756219 527.405828,230.319829 C532.17484,233.916134 538.976546,234.385217 542.260128,231.257996 L542.260128,231.257996 L542.260128,231.257996 Z M179.658849,210.931059 C180.362473,207.178394 180.831557,194.825871 181.144279,176.140725 L181.535181,147.21393 L179.580668,145.884861 C175.593461,143.226724 132.906894,127.981521 91.862118,114.534471 C53.0845771,101.791045 50.0355366,101.00924 48.7846482,103.745558 C48.3937456,104.449183 48.0028429,120.710732 47.8464819,139.943141 L47.6119403,174.733475 L58.4008529,177.626155 C83.9658849,184.584222 109.921819,193.340441 139.161336,204.989339 C154.015636,210.931059 175.671642,217.576404 177.860697,216.950959 C178.32978,216.872779 179.111585,214.136461 179.658849,210.931059 L179.658849,210.931059 L179.658849,210.931059 Z" id="Shape"></path>
                    <path d="M529.20398,218.358209 C527.874911,216.716418 529.20398,214.527363 531.705757,214.527363 C533.113006,214.527363 533.66027,214.996446 533.816631,216.403696 C534.285714,219.374556 531.158493,220.703625 529.20398,218.358209 L529.20398,218.358209 L529.20398,218.358209 Z" id="Shape"></path>
                    <path d="M539.132907,189.431414 C537.569296,187.945984 537.569296,187.164179 539.132907,185.678749 C540.540156,184.2715 540.461976,184.2715 542.103767,184.896944 C543.823738,185.600569 543.667377,188.884151 541.869225,189.900498 C540.696517,190.447761 540.071073,190.369581 539.132907,189.431414 L539.132907,189.431414 L539.132907,189.431414 Z" id="Shape"></path>
                    <path d="M583.461265,169.886283 C582.835821,168.166311 584.24307,166.055437 585.963042,166.055437 C586.744847,166.055437 587.683014,166.602701 588.152097,167.306326 C589.324805,169.182658 588.230277,171.137171 585.963042,171.137171 C584.790334,171.137171 583.773987,170.589908 583.461265,169.886283 L583.461265,169.886283 L583.461265,169.886283 Z" id="Shape"></path>
                    <path d="M530.376688,155.188344 C529.594883,153.15565 530.454869,151.201137 532.17484,150.966596 C534.363895,150.653873 536.083866,153.468372 534.676617,155.188344 C533.503909,156.595593 530.923952,156.595593 530.376688,155.188344 L530.376688,155.188344 L530.376688,155.188344 Z" id="Shape"></path>
                    <path d="M591.982942,146.979389 C591.357498,146.666667 591.044776,145.493959 591.201137,144.477612 C591.513859,141.897655 595.344705,141.350391 596.12651,143.773987 C596.986496,146.588486 594.406539,148.542999 591.982942,146.979389 L591.982942,146.979389 L591.982942,146.979389 Z" id="Shape"></path>
                    <path d="M475.884861,136.581379 C474.321251,135.721393 474.16489,133.375977 475.65032,132.125089 C477.683014,130.405117 480.575693,132.906894 479.559346,135.486851 C478.933902,137.050462 477.448472,137.519545 475.884861,136.581379 L475.884861,136.581379 L475.884861,136.581379 Z" id="Shape"></path>
                    <path d="M578.535892,120.710732 C576.972281,118.756219 577.910448,116.801706 580.490405,116.801706 C582.132196,116.801706 582.914001,117.192608 583.070362,118.208955 C583.383085,119.850746 581.975835,121.88344 580.490405,121.88344 C579.943141,121.88344 579.083156,121.336176 578.535892,120.710732 L578.535892,120.710732 L578.535892,120.710732 Z" id="Shape"></path>
                    <path d="M523.574982,115.081734 C522.558635,114.143568 523.027719,111.094527 524.200426,110.625444 C526.702203,109.687278 528.969439,111.954513 528.031272,114.45629 C527.562189,115.628998 524.513149,116.098081 523.574982,115.081734 L523.574982,115.081734 L523.574982,115.081734 Z" id="Shape"></path>
                    <path d="M478.152097,109.140014 C476.119403,107.654584 476.823028,105.152807 479.481166,104.840085 C481.904762,104.527363 483.15565,106.403696 481.826581,108.436389 C480.810235,110.156361 479.793888,110.312722 478.152097,109.140014 L478.152097,109.140014 L478.152097,109.140014 Z" id="Shape"></path>
                    <path d="M544.136461,100.383795 C542.57285,98.4292822 543.511016,96.474769 546.090974,96.474769 C547.732765,96.474769 548.51457,96.8656716 548.670931,97.8820185 C548.983653,99.5238095 547.576404,101.556503 546.090974,101.556503 C545.54371,101.556503 544.683724,101.00924 544.136461,100.383795 L544.136461,100.383795 L544.136461,100.383795 Z" id="Shape"></path>
                    <path d="M506.687989,88.4221748 C505.749822,86.6240227 507.000711,84.3567875 508.955224,84.3567875 C510.909737,84.3567875 512.160625,86.7022033 511.222459,88.5003554 C510.206112,90.2203269 507.626155,90.2203269 506.687989,88.4221748 L506.687989,88.4221748 L506.687989,88.4221748 Z" id="Shape"></path>
                    <path d="M533.503909,59.8081023 C532.643923,57.6190476 533.58209,55.8208955 535.458422,55.8208955 C537.960199,55.8208955 539.289268,58.0099502 537.960199,59.6517413 C536.63113,61.2153518 534.051173,61.2935323 533.503909,59.8081023 L533.503909,59.8081023 L533.503909,59.8081023 Z" id="Shape"></path>
                    <path d="M527.953092,23.6886994 C527.327647,21.9687278 528.734897,19.8578536 530.454869,19.8578536 C531.236674,19.8578536 532.17484,20.4051173 532.643923,21.108742 C533.816631,22.9850746 532.722104,24.9395878 530.454869,24.9395878 C529.282161,24.9395878 528.265814,24.3923241 527.953092,23.6886994 L527.953092,23.6886994 L527.953092,23.6886994 Z" id="Shape"></path>
                    <path d="M150.262971,190.525942 C149.872068,189.978678 147.057569,185.287846 144.086709,180.127932 C141.037669,174.968017 136.268657,167.071784 133.375977,162.537313 C130.483298,158.081023 128.294243,153.859275 128.372424,153.15565 C128.606965,152.295665 129.623312,151.982942 132.28145,152.061123 C135.33049,152.061123 137.285004,152.842928 143.930348,156.908316 C148.308458,159.566453 152.061123,161.599147 152.217484,161.442786 C152.452026,161.208244 151.435679,157.53376 150.028429,153.233831 C147.683014,146.119403 147.370291,143.070362 149.246624,145.024876 C150.262971,146.041222 155.422886,161.755508 156.04833,165.508173 C156.361052,167.619048 156.204691,168.791756 155.501066,169.260839 C154.875622,169.573561 154.328358,169.4172 154.171997,168.713575 C153.07747,165.273632 136.503198,153.937456 132.594172,153.937456 C130.639659,153.937456 131.108742,154.875622 137.910448,165.664534 C142.992182,173.560768 152.373845,189.196873 153.07747,190.838664 C153.546553,191.855011 151.122957,191.542289 150.262971,190.525942 L150.262971,190.525942 L150.262971,190.525942 Z" id="Shape"></path>
                    <path d="M87.249467,172.544421 C86.6240227,171.528074 83.1840796,165.820896 79.5877754,159.800995 C75.9914712,153.781095 71.3006397,146.119403 69.267946,142.835821 C67.0788913,139.317697 65.6716418,136.268657 65.9061834,135.565032 C67.0788913,132.672353 74.1151386,135.017768 85.1385928,141.975835 C87.405828,143.461265 89.4385217,144.477612 89.6730633,144.24307 C89.9076048,144.086709 88.891258,140.334044 87.4840085,136.034115 C85.1385928,128.841507 84.9040512,125.948827 86.7803838,127.82516 C87.7185501,128.763326 92.8784648,144.555792 93.503909,148.386638 C93.8166311,150.419332 93.6602701,151.59204 92.9566453,152.061123 C92.3312011,152.373845 91.7839375,152.217484 91.6275764,151.513859 C90.533049,148.152097 73.9587775,136.73774 70.1279318,136.73774 C68.1734186,136.73774 68.4079602,137.519545 72.6297086,143.930348 C75.9914712,149.090263 89.8294243,172.075338 90.533049,173.638948 C91.2366738,175.124378 88.2658138,174.108031 87.249467,172.544421 L87.249467,172.544421 L87.249467,172.544421 Z" id="Shape"></path>
                    <path d="M114.143568,172.622601 C107.967306,169.808102 100.774698,161.286425 99.9928927,155.891969 C99.5238095,151.904762 102.416489,145.181237 105.230988,143.852168 C113.127221,140.255864 121.336176,148.073916 125.557925,163.162758 C127.199716,169.026297 126.261549,172.153518 122.587065,173.404407 C119.303483,174.577114 118.208955,174.498934 114.143568,172.622601 L114.143568,172.622601 L114.143568,172.622601 Z M122.821606,170.433547 C124.541578,169.026297 124.541578,168.791756 123.681592,164.882729 C121.336176,154.719261 114.45629,145.337598 109.452736,145.337598 C107.967306,145.337598 106.325515,146.041222 105.152807,147.292111 C103.511016,148.855721 103.198294,149.950249 103.198294,153.937456 C103.198294,158.002843 103.589197,159.253731 105.54371,162.146411 C109.374556,167.697228 115.159915,171.840796 119.303483,171.918977 C120.241649,171.918977 121.805259,171.293532 122.821606,170.433547 L122.821606,170.433547 L122.821606,170.433547 Z" id="Shape"></path>
                </g>
            </g>
        </g>
    </g>
</svg>